# xmcd CD database file
# Copyright (C) 1997 Ti Kan
# 
# Track frame offsets:
#     150
#     15836
#     34578
#     51230
#     62183
#     75160
#     88287
#     110298
#     126389
#     139136
# 
# Disc length: 2050 seconds
# 
# Revision: 1
# Processed by: cddbd v1.4b41PL1 Copyright (c) Steve Scherf et al.
# Submitted via: DiscPlay 4.0.3
# 
DISCID=7b08000a
DTITLE=ANCHISE BOLCHI - THE LAST TRACK
DYEAR=1900
DGENRE=
TTITLE0=I STILL HAVEN'T FOUND WHAT I'M LOOKING FOR
TTITLE1=ONE WAY RIDER
TTITLE2=LIGHTHOUSE
TTITLE3=DIGGY DIGGY LO
TTITLE4=LESS TALK AND MORE ACTION
TTITLE5=YEARS BEHIND BARS
TTITLE6=EVERY LITTLE KISS7
TTITLE7=THE DEVIL WENT DOWN TO GEORGIA
TTITLE8=CALLIN' BATON ROUGE
TTITLE9=HUMMINGBIRD
EXTD=
EXTT0=
EXTT1=
EXTT2=
EXTT3=
EXTT4=
EXTT5=
EXTT6=
EXTT7=
EXTT8=
EXTT9=
PLAYORDER=
